<svg xmlns="http://www.w3.org/2000/svg" xmlns:xlink="http://www.w3.org/1999/xlink" width="550" zoomAndPan="magnify" viewBox="0 0 412.5 188.249992" height="251" preserveAspectRatio="xMidYMid meet" version="1.0"><defs><g/><clipPath id="b1d76edde5"><path d="M 239.167969 88.824219 L 368.402344 88.824219 L 368.402344 138.128906 L 239.167969 138.128906 Z M 239.167969 88.824219 " clip-rule="nonzero"/></clipPath></defs><g fill="#29ddff" fill-opacity="1"><g transform="translate(15.482228, 62.924666)"><g><path d="M 45.320312 -35.742188 L 29.523438 -35.742188 L 29.523438 -23.445312 L 18.800781 -23.445312 L 18.800781 -35.742188 L 2.929688 -35.742188 L 2.929688 0 L 18.800781 0 L 18.800781 -12.367188 L 29.523438 -12.367188 L 29.523438 0 L 45.320312 0 Z M 45.320312 -35.742188 "/></g></g></g><g fill="#29ddff" fill-opacity="1"><g transform="translate(63.727763, 62.924666)"><g><path d="M 25.445312 0.644531 C 40.171875 0.644531 48.464844 -6.074219 48.464844 -17.871094 C 48.464844 -29.664062 40.171875 -36.382812 25.445312 -36.382812 C 10.722656 -36.382812 2.359375 -29.664062 2.359375 -17.871094 C 2.359375 -6.074219 10.722656 0.644531 25.445312 0.644531 Z M 25.519531 -10.4375 C 20.730469 -10.4375 18.085938 -13.082031 18.085938 -17.871094 C 18.085938 -22.660156 20.730469 -25.304688 25.519531 -25.304688 C 30.164062 -25.304688 32.738281 -22.660156 32.738281 -17.871094 C 32.738281 -13.082031 30.164062 -10.4375 25.519531 -10.4375 Z M 25.519531 -10.4375 "/></g></g></g><g fill="#29ddff" fill-opacity="1"><g transform="translate(114.617863, 62.924666)"><g><path d="M 40.457031 -15.441406 C 43.601562 -17.296875 45.320312 -20.300781 45.320312 -24.304688 C 45.320312 -31.59375 40.027344 -35.742188 30.59375 -35.742188 L 2.929688 -35.742188 L 2.929688 0 L 18.800781 0 L 18.800781 -13.082031 L 25.234375 -13.082031 C 28.808594 -12.796875 30.808594 -11.007812 30.808594 -8.078125 L 30.808594 0 L 45.03125 0 L 45.03125 -5.863281 C 45.03125 -10.148438 43.460938 -13.4375 40.457031 -15.441406 Z M 27.378906 -22.015625 L 18.800781 -22.015625 L 18.800781 -26.304688 L 27.378906 -26.304688 C 29.808594 -26.304688 31.164062 -25.519531 31.164062 -24.089844 C 31.164062 -22.730469 29.808594 -22.015625 27.378906 -22.015625 Z M 27.378906 -22.015625 "/></g></g></g><g fill="#29ddff" fill-opacity="1"><g transform="translate(162.434548, 62.924666)"><g><path d="M 35.382812 -5.433594 L 38.027344 0 L 53.253906 0 L 34.953125 -35.742188 L 19.085938 -35.742188 L 0.5 0 L 15.796875 0 L 18.511719 -5.433594 Z M 30.878906 -14.367188 L 23.015625 -14.367188 L 27.019531 -23.230469 Z M 30.878906 -14.367188 "/></g></g></g><g fill="#29ddff" fill-opacity="1"><g transform="translate(216.25512, 62.924666)"><g><path d="M 40.457031 -15.441406 C 43.601562 -17.296875 45.320312 -20.300781 45.320312 -24.304688 C 45.320312 -31.59375 40.027344 -35.742188 30.59375 -35.742188 L 2.929688 -35.742188 L 2.929688 0 L 18.800781 0 L 18.800781 -13.082031 L 25.234375 -13.082031 C 28.808594 -12.796875 30.808594 -11.007812 30.808594 -8.078125 L 30.808594 0 L 45.03125 0 L 45.03125 -5.863281 C 45.03125 -10.148438 43.460938 -13.4375 40.457031 -15.441406 Z M 27.378906 -22.015625 L 18.800781 -22.015625 L 18.800781 -26.304688 L 27.378906 -26.304688 C 29.808594 -26.304688 31.164062 -25.519531 31.164062 -24.089844 C 31.164062 -22.730469 29.808594 -22.015625 27.378906 -22.015625 Z M 27.378906 -22.015625 "/></g></g></g><g fill="#29ddff" fill-opacity="1"><g transform="translate(264.071805, 62.924666)"><g><path d="M 18.800781 -35.742188 L 2.929688 -35.742188 L 2.929688 0 L 18.800781 0 Z M 18.800781 -35.742188 "/></g></g></g><g fill="#29ddff" fill-opacity="1"><g transform="translate(285.800172, 62.924666)"><g><path d="M 25.445312 0.644531 C 40.171875 0.644531 48.464844 -6.074219 48.464844 -17.871094 C 48.464844 -29.664062 40.171875 -36.382812 25.445312 -36.382812 C 10.722656 -36.382812 2.359375 -29.664062 2.359375 -17.871094 C 2.359375 -6.074219 10.722656 0.644531 25.445312 0.644531 Z M 25.519531 -10.4375 C 20.730469 -10.4375 18.085938 -13.082031 18.085938 -17.871094 C 18.085938 -22.660156 20.730469 -25.304688 25.519531 -25.304688 C 30.164062 -25.304688 32.738281 -22.660156 32.738281 -17.871094 C 32.738281 -13.082031 30.164062 -10.4375 25.519531 -10.4375 Z M 25.519531 -10.4375 "/></g></g></g><g fill="#29ddff" fill-opacity="1"><g transform="translate(336.690289, 62.924666)"><g><path d="M 24.445312 0.5 C 13.796875 0.570312 6.148438 -3.144531 3.144531 -9.722656 L 15.941406 -12.722656 C 17.226562 -10.363281 20.300781 -9.007812 24.445312 -9.007812 C 29.234375 -9.007812 31.878906 -9.722656 31.878906 -11.007812 C 31.878906 -15.441406 1.785156 -10.863281 1.785156 -24.375 C 1.785156 -32.09375 9.9375 -36.382812 24.375 -36.382812 C 35.027344 -36.382812 42.675781 -32.667969 45.675781 -26.019531 L 32.882812 -23.015625 C 31.664062 -25.519531 28.59375 -26.875 24.375 -26.875 C 19.585938 -26.875 16.941406 -26.160156 16.941406 -24.730469 C 16.941406 -20.871094 47.035156 -24.875 47.035156 -11.367188 C 47.035156 -3.574219 38.886719 0.644531 24.445312 0.5 Z M 24.445312 0.5 "/></g></g></g><g fill="#f3214d" fill-opacity="1"><g transform="translate(48.702079, 142.393113)"><g><path d="M 70.789062 -27.015625 C 76.292969 -30.265625 79.292969 -35.519531 79.292969 -42.523438 C 79.292969 -55.28125 70.039062 -62.535156 53.53125 -62.535156 L 5.128906 -62.535156 L 5.128906 0 L 32.894531 0 L 32.894531 -22.886719 L 44.148438 -22.886719 C 50.402344 -22.386719 53.90625 -19.261719 53.90625 -14.132812 L 53.90625 0 L 78.792969 0 L 78.792969 -10.253906 C 78.792969 -17.761719 76.042969 -23.511719 70.789062 -27.015625 Z M 47.902344 -38.519531 L 32.894531 -38.519531 L 32.894531 -46.027344 L 47.902344 -46.027344 C 52.152344 -46.027344 54.53125 -44.648438 54.53125 -42.148438 C 54.53125 -39.773438 52.152344 -38.519531 47.902344 -38.519531 Z M 47.902344 -38.519531 "/></g></g></g><g fill="#f3214d" fill-opacity="1"><g transform="translate(132.373356, 142.393113)"><g><path d="M 44.523438 1.125 C 70.289062 1.125 84.796875 -10.632812 84.796875 -31.265625 C 84.796875 -51.902344 70.289062 -63.660156 44.523438 -63.660156 C 18.761719 -63.660156 4.128906 -51.902344 4.128906 -31.265625 C 4.128906 -10.632812 18.761719 1.125 44.523438 1.125 Z M 44.648438 -18.261719 C 36.269531 -18.261719 31.640625 -22.886719 31.640625 -31.265625 C 31.640625 -39.648438 36.269531 -44.273438 44.648438 -44.273438 C 52.777344 -44.273438 57.28125 -39.648438 57.28125 -31.265625 C 57.28125 -22.886719 52.777344 -18.261719 44.648438 -18.261719 Z M 44.648438 -18.261719 "/></g></g></g><g fill="#f3214d" fill-opacity="1"><g transform="translate(221.422594, 142.393113)"><g><path d="M 53.15625 -26.890625 L 80.167969 -23.386719 C 75.917969 -7.753906 62.410156 1.125 42.648438 1.125 C 18.011719 1.125 4.128906 -10.632812 4.128906 -31.265625 C 4.128906 -51.902344 18.011719 -63.660156 42.648438 -63.660156 C 62.535156 -63.660156 76.042969 -54.78125 80.167969 -39.148438 L 53.15625 -35.769531 C 51.902344 -41.148438 48.152344 -44.273438 42.773438 -44.273438 C 35.644531 -44.273438 31.640625 -39.648438 31.640625 -31.265625 C 31.640625 -22.886719 35.644531 -18.261719 42.773438 -18.261719 C 48.277344 -18.261719 52.152344 -21.386719 53.15625 -26.890625 Z M 53.15625 -26.890625 "/></g></g></g><g fill="#f3214d" fill-opacity="1"><g transform="translate(305.719181, 142.393113)"><g><path d="M 51.152344 0 L 79.917969 0 L 53.40625 -35.769531 L 79.417969 -62.535156 L 51.652344 -62.535156 L 32.894531 -42.773438 L 32.894531 -62.535156 L 5.128906 -62.535156 L 5.128906 0 L 32.894531 0 L 32.894531 -14.382812 L 37.144531 -19.011719 Z M 51.152344 0 "/></g></g></g><g clip-path="url(#b1d76edde5)"><path fill="#1f2937" d="M 239.1875 118.066406 C 239.207031 118.773438 239.589844 119.503906 240.214844 119.535156 C 243.183594 119.527344 245.960938 119.554688 248.808594 119.546875 L 248.832031 120.726562 C 248.105469 120.898438 247.453125 121.222656 246.9375 121.546875 C 246.1875 122.019531 245.902344 122.601562 245.902344 123.324219 C 245.902344 124.046875 246.222656 124.699219 246.976562 125.171875 C 247.726562 125.644531 248.765625 126.121094 249.914062 126.121094 C 251.0625 126.121094 252.105469 125.644531 252.855469 125.171875 C 253.609375 124.699219 253.929688 124.046875 253.929688 123.324219 C 253.929688 122.601562 253.574219 122.019531 252.820312 121.546875 C 252.320312 121.234375 251.695312 120.921875 250.996094 120.746094 L 251.023438 119.527344 C 251.1875 119.523438 251.351562 119.523438 251.515625 119.519531 C 255.328125 119.59375 257.332031 119.734375 260.214844 119.96875 L 260.246094 121.375 C 259.515625 121.546875 258.867188 121.871094 258.351562 122.195312 C 257.597656 122.667969 257.3125 123.25 257.3125 123.972656 C 257.3125 124.691406 257.632812 125.347656 258.386719 125.820312 C 259.140625 126.292969 260.179688 126.765625 261.328125 126.765625 C 262.476562 126.765625 263.515625 126.292969 264.265625 125.820312 C 265.019531 125.347656 265.339844 124.691406 265.339844 123.972656 C 265.339844 123.25 264.984375 122.667969 264.230469 122.195312 C 263.734375 121.882812 263.109375 121.566406 262.410156 121.390625 L 262.433594 120.148438 C 262.597656 120.160156 262.714844 120.171875 262.886719 120.183594 C 266 120.511719 268.746094 121.191406 271.511719 122.140625 C 271.566406 122.15625 271.621094 122.175781 271.675781 122.195312 L 271.707031 123.808594 C 270.980469 123.980469 270.328125 124.304688 269.8125 124.628906 C 269.0625 125.101562 268.777344 125.683594 268.777344 126.40625 C 268.777344 127.128906 269.097656 127.78125 269.851562 128.253906 C 270.601562 128.726562 271.640625 129.203125 272.789062 129.203125 C 273.9375 129.203125 274.976562 128.726562 275.730469 128.253906 C 276.484375 127.78125 276.804688 127.128906 276.804688 126.40625 C 276.804688 125.683594 276.445312 125.101562 275.695312 124.628906 C 275.195312 124.316406 274.570312 124.003906 273.871094 123.828125 L 273.890625 123.015625 C 275.394531 123.640625 276.855469 124.367188 278.097656 125.027344 C 279.460938 126.046875 280.242188 125.21875 280.945312 124.136719 C 283.136719 120.644531 286.257812 118.082031 291.460938 117.605469 L 438.730469 120.386719 C 434.445312 135.523438 429.664062 137.65625 414.792969 140.542969 C 410.695312 141.339844 411.578125 147.6875 414.933594 149.867188 C 429.621094 159.40625 445.558594 147.671875 456.875 144.410156 C 468.734375 140.988281 482.1875 152.230469 489.464844 157.007812 C 494.023438 160 498.410156 163.554688 507.355469 164.484375 C 529.757812 166.804688 543.460938 155.894531 550.863281 136.09375 C 553.457031 126.144531 556.433594 110.015625 551.539062 89.222656 C 547.917969 73.855469 539.84375 65.632812 529.699219 59.824219 C 521.273438 55 510.476562 55.878906 500.804688 59.488281 C 487.742188 64.363281 477.199219 79.1875 461.117188 76.285156 C 454.441406 75.082031 449.097656 69.640625 442.496094 68.070312 C 434.703125 66.210938 426.089844 75.832031 431.394531 78.988281 C 442.582031 84.378906 442.753906 98.769531 441.769531 100.5625 L 293.597656 102.933594 L 291.21875 102.933594 C 287.507812 102.089844 283.761719 101.445312 280.886719 95.863281 C 278.710938 93.320312 277.246094 96.304688 274.578125 97.207031 C 274.347656 97.28125 274.117188 97.351562 273.886719 97.421875 L 273.871094 96.710938 C 274.570312 96.535156 275.195312 96.222656 275.691406 95.90625 C 276.445312 95.433594 276.800781 94.855469 276.800781 94.132812 C 276.800781 93.410156 276.480469 92.753906 275.726562 92.28125 C 274.976562 91.808594 273.9375 91.335938 272.789062 91.335938 C 271.640625 91.335938 270.601562 91.808594 269.847656 92.28125 C 269.09375 92.753906 268.773438 93.410156 268.773438 94.132812 C 268.773438 94.855469 269.058594 95.433594 269.8125 95.90625 C 270.328125 96.230469 270.976562 96.558594 271.707031 96.730469 L 271.679688 98.085938 C 268.644531 98.949219 265.535156 99.671875 262.882812 100.039062 C 262.734375 100.066406 262.578125 100.09375 262.425781 100.121094 L 262.40625 99.144531 C 263.105469 98.96875 263.730469 98.65625 264.230469 98.34375 C 264.980469 97.871094 265.339844 97.289062 265.339844 96.566406 C 265.339844 95.84375 265.015625 95.191406 264.265625 94.71875 C 263.511719 94.246094 262.472656 93.769531 261.324219 93.769531 C 260.175781 93.769531 259.136719 94.246094 258.382812 94.71875 C 257.632812 95.191406 257.308594 95.84375 257.308594 96.566406 C 257.308594 97.289062 257.59375 97.871094 258.347656 98.34375 C 258.863281 98.667969 259.515625 98.992188 260.242188 99.164062 L 260.214844 100.4375 C 257.1875 100.789062 254.105469 100.832031 251.515625 100.777344 C 251.351562 100.769531 251.183594 100.765625 251.015625 100.757812 L 250.996094 99.464844 C 251.695312 99.289062 252.320312 98.976562 252.816406 98.660156 C 253.570312 98.1875 253.929688 97.609375 253.929688 96.886719 C 253.929688 96.164062 253.605469 95.507812 252.855469 95.035156 C 252.101562 94.5625 251.0625 94.089844 249.914062 94.089844 C 248.765625 94.089844 247.726562 94.5625 246.972656 95.035156 C 246.222656 95.511719 245.898438 96.164062 245.898438 96.886719 C 245.898438 97.609375 246.183594 98.1875 246.9375 98.660156 C 247.453125 98.984375 248.101562 99.3125 248.832031 99.484375 L 248.8125 100.726562 C 247.285156 100.734375 245.765625 100.800781 244.417969 100.875 C 243.386719 100.875 242.542969 101.550781 243.050781 102.8125 C 245.125 108.019531 242.335938 111.808594 239.382812 117.1875 C 239.234375 117.429688 239.171875 117.746094 239.183594 118.066406 Z M 239.1875 118.066406 " fill-opacity="1" fill-rule="evenodd"/></g><g fill="#faf2e9" fill-opacity="1"><g transform="translate(36.646966, 144.257464)"><g><path d="M -17.71875 -11.660156 L -17.71875 -1.453125 L 0 -1.453125 L 0 -11.660156 C 0 -18.570312 -3.191406 -22.46875 -8.859375 -22.46875 C -14.53125 -22.46875 -17.71875 -18.570312 -17.71875 -11.660156 Z M -5.492188 -11.871094 L -5.492188 -9.320312 L -12.226562 -9.320312 L -12.226562 -11.871094 C -12.226562 -13.644531 -11.023438 -14.671875 -8.859375 -14.671875 C -6.699219 -14.671875 -5.492188 -13.644531 -5.492188 -11.871094 Z M -5.492188 -11.871094 "/></g></g></g><g fill="#faf2e9" fill-opacity="1"><g transform="translate(36.646966, 120.689905)"><g><path d="M -13.042969 -9.320312 L -13.042969 -20.234375 L -17.71875 -20.234375 L -17.71875 -1.453125 L 0 -1.453125 L 0 -20.234375 L -4.714844 -20.234375 L -4.714844 -9.320312 L -6.664062 -9.320312 L -6.664062 -20.234375 L -11.09375 -20.234375 L -11.09375 -9.320312 Z M -13.042969 -9.320312 "/></g></g></g><g fill="#faf2e9" fill-opacity="1"><g transform="translate(36.646966, 99.000671)"><g><path d="M -5.492188 -20.234375 L -5.492188 -9.320312 L -17.71875 -9.320312 L -17.71875 -1.453125 L 0 -1.453125 L 0 -20.234375 Z M -5.492188 -20.234375 "/></g></g></g></svg>