<svg xmlns="http://www.w3.org/2000/svg" xmlns:xlink="http://www.w3.org/1999/xlink" width="476" zoomAndPan="magnify" viewBox="0 0 357 162.749997" height="217" preserveAspectRatio="xMidYMid meet" version="1.0"><defs><g/><clipPath id="1c6f0c5411"><path d="M 212.496094 77.058594 L 342.046875 77.058594 L 342.046875 126.484375 L 212.496094 126.484375 Z M 212.496094 77.058594 " clip-rule="nonzero"/></clipPath></defs><g fill="#1f2937" fill-opacity="1"><g transform="translate(13.097594, 54.504985)"><g><path d="M 39.304688 -31 L 25.605469 -31 L 25.605469 -20.335938 L 16.304688 -20.335938 L 16.304688 -31 L 2.542969 -31 L 2.542969 0 L 16.304688 0 L 16.304688 -10.726562 L 25.605469 -10.726562 L 25.605469 0 L 39.304688 0 Z M 39.304688 -31 "/></g></g></g><g fill="#1f2937" fill-opacity="1"><g transform="translate(54.942449, 54.504985)"><g><path d="M 22.070312 0.558594 C 34.84375 0.558594 42.035156 -5.269531 42.035156 -15.5 C 42.035156 -25.730469 34.84375 -31.558594 22.070312 -31.558594 C 9.300781 -31.558594 2.046875 -25.730469 2.046875 -15.5 C 2.046875 -5.269531 9.300781 0.558594 22.070312 0.558594 Z M 22.132812 -9.050781 C 17.980469 -9.050781 15.683594 -11.34375 15.683594 -15.5 C 15.683594 -19.652344 17.980469 -21.945312 22.132812 -21.945312 C 26.164062 -21.945312 28.394531 -19.652344 28.394531 -15.5 C 28.394531 -11.34375 26.164062 -9.050781 22.132812 -9.050781 Z M 22.132812 -9.050781 "/></g></g></g><g fill="#1f2937" fill-opacity="1"><g transform="translate(99.081017, 54.504985)"><g><path d="M 35.089844 -13.390625 C 37.820312 -15.003906 39.304688 -17.605469 39.304688 -21.078125 C 39.304688 -27.402344 34.71875 -31 26.535156 -31 L 2.542969 -31 L 2.542969 0 L 16.304688 0 L 16.304688 -11.34375 L 21.886719 -11.34375 C 24.984375 -11.097656 26.722656 -9.546875 26.722656 -7.003906 L 26.722656 0 L 39.058594 0 L 39.058594 -5.082031 C 39.058594 -8.804688 37.695312 -11.65625 35.089844 -13.390625 Z M 23.746094 -19.09375 L 16.304688 -19.09375 L 16.304688 -22.816406 L 23.746094 -22.816406 C 25.851562 -22.816406 27.03125 -22.132812 27.03125 -20.894531 C 27.03125 -19.714844 25.851562 -19.09375 23.746094 -19.09375 Z M 23.746094 -19.09375 "/></g></g></g><g fill="#1f2937" fill-opacity="1"><g transform="translate(140.553917, 54.504985)"><g><path d="M 30.6875 -4.710938 L 32.984375 0 L 46.1875 0 L 30.316406 -31 L 16.554688 -31 L 0.433594 0 L 13.703125 0 L 16.058594 -4.710938 Z M 26.78125 -12.460938 L 19.964844 -12.460938 L 23.433594 -20.148438 Z M 26.78125 -12.460938 "/></g></g></g><g fill="#1f2937" fill-opacity="1"><g transform="translate(187.234174, 54.504985)"><g><path d="M 35.089844 -13.390625 C 37.820312 -15.003906 39.304688 -17.605469 39.304688 -21.078125 C 39.304688 -27.402344 34.71875 -31 26.535156 -31 L 2.542969 -31 L 2.542969 0 L 16.304688 0 L 16.304688 -11.34375 L 21.886719 -11.34375 C 24.984375 -11.097656 26.722656 -9.546875 26.722656 -7.003906 L 26.722656 0 L 39.058594 0 L 39.058594 -5.082031 C 39.058594 -8.804688 37.695312 -11.65625 35.089844 -13.390625 Z M 23.746094 -19.09375 L 16.304688 -19.09375 L 16.304688 -22.816406 L 23.746094 -22.816406 C 25.851562 -22.816406 27.03125 -22.132812 27.03125 -20.894531 C 27.03125 -19.714844 25.851562 -19.09375 23.746094 -19.09375 Z M 23.746094 -19.09375 "/></g></g></g><g fill="#1f2937" fill-opacity="1"><g transform="translate(228.707074, 54.504985)"><g><path d="M 16.304688 -31 L 2.542969 -31 L 2.542969 0 L 16.304688 0 Z M 16.304688 -31 "/></g></g></g><g fill="#1f2937" fill-opacity="1"><g transform="translate(247.552764, 54.504985)"><g><path d="M 22.070312 0.558594 C 34.84375 0.558594 42.035156 -5.269531 42.035156 -15.5 C 42.035156 -25.730469 34.84375 -31.558594 22.070312 -31.558594 C 9.300781 -31.558594 2.046875 -25.730469 2.046875 -15.5 C 2.046875 -5.269531 9.300781 0.558594 22.070312 0.558594 Z M 22.132812 -9.050781 C 17.980469 -9.050781 15.683594 -11.34375 15.683594 -15.5 C 15.683594 -19.652344 17.980469 -21.945312 22.132812 -21.945312 C 26.164062 -21.945312 28.394531 -19.652344 28.394531 -15.5 C 28.394531 -11.34375 26.164062 -9.050781 22.132812 -9.050781 Z M 22.132812 -9.050781 "/></g></g></g><g fill="#1f2937" fill-opacity="1"><g transform="translate(291.691347, 54.504985)"><g><path d="M 21.203125 0.433594 C 11.964844 0.496094 5.332031 -2.726562 2.726562 -8.433594 L 13.824219 -11.035156 C 14.941406 -8.988281 17.605469 -7.8125 21.203125 -7.8125 C 25.355469 -7.8125 27.652344 -8.433594 27.652344 -9.546875 C 27.652344 -13.390625 1.550781 -9.421875 1.550781 -21.140625 C 1.550781 -27.835938 8.617188 -31.558594 21.140625 -31.558594 C 30.378906 -31.558594 37.011719 -28.332031 39.617188 -22.566406 L 28.519531 -19.964844 C 27.464844 -22.132812 24.800781 -23.3125 21.140625 -23.3125 C 16.988281 -23.3125 14.695312 -22.691406 14.695312 -21.449219 C 14.695312 -18.101562 40.792969 -21.574219 40.792969 -9.859375 C 40.792969 -3.101562 33.726562 0.558594 21.203125 0.433594 Z M 21.203125 0.433594 "/></g></g></g><g fill="#1f2937" fill-opacity="1"><g transform="translate(41.910207, 123.430439)"><g><path d="M 61.398438 -23.429688 C 66.171875 -26.25 68.773438 -30.808594 68.773438 -36.882812 C 68.773438 -47.945312 60.746094 -54.238281 46.429688 -54.238281 L 4.449219 -54.238281 L 4.449219 0 L 28.53125 0 L 28.53125 -19.851562 L 38.292969 -19.851562 C 43.714844 -19.417969 46.753906 -16.707031 46.753906 -12.257812 L 46.753906 0 L 68.339844 0 L 68.339844 -8.894531 C 68.339844 -15.402344 65.953125 -20.394531 61.398438 -23.429688 Z M 41.546875 -33.410156 L 28.53125 -33.410156 L 28.53125 -39.917969 L 41.546875 -39.917969 C 45.234375 -39.917969 47.296875 -38.726562 47.296875 -36.554688 C 47.296875 -34.496094 45.234375 -33.410156 41.546875 -33.410156 Z M 41.546875 -33.410156 "/></g></g></g><g fill="#1f2937" fill-opacity="1"><g transform="translate(114.480911, 123.430439)"><g><path d="M 38.617188 0.976562 C 60.964844 0.976562 73.546875 -9.21875 73.546875 -27.117188 C 73.546875 -45.019531 60.964844 -55.214844 38.617188 -55.214844 C 16.269531 -55.214844 3.578125 -45.019531 3.578125 -27.117188 C 3.578125 -9.21875 16.269531 0.976562 38.617188 0.976562 Z M 38.726562 -15.835938 C 31.457031 -15.835938 27.445312 -19.851562 27.445312 -27.117188 C 27.445312 -34.386719 31.457031 -38.402344 38.726562 -38.402344 C 45.777344 -38.402344 49.683594 -34.386719 49.683594 -27.117188 C 49.683594 -19.851562 45.777344 -15.835938 38.726562 -15.835938 Z M 38.726562 -15.835938 "/></g></g></g><g fill="#1f2937" fill-opacity="1"><g transform="translate(191.716088, 123.430439)"><g><path d="M 46.101562 -23.324219 L 69.535156 -20.285156 C 65.84375 -6.726562 54.128906 0.976562 36.992188 0.976562 C 15.621094 0.976562 3.578125 -9.21875 3.578125 -27.117188 C 3.578125 -45.019531 15.621094 -55.214844 36.992188 -55.214844 C 54.238281 -55.214844 65.953125 -47.511719 69.535156 -33.953125 L 46.101562 -31.023438 C 45.019531 -35.6875 41.761719 -38.402344 37.097656 -38.402344 C 30.914062 -38.402344 27.445312 -34.386719 27.445312 -27.117188 C 27.445312 -19.851562 30.914062 -15.835938 37.097656 -15.835938 C 41.871094 -15.835938 45.234375 -18.550781 46.101562 -23.324219 Z M 46.101562 -23.324219 "/></g></g></g><g fill="#1f2937" fill-opacity="1"><g transform="translate(264.829142, 123.430439)"><g><path d="M 44.367188 0 L 69.316406 0 L 46.320312 -31.023438 L 68.882812 -54.238281 L 44.800781 -54.238281 L 28.53125 -37.097656 L 28.53125 -54.238281 L 4.449219 -54.238281 L 4.449219 0 L 28.53125 0 L 28.53125 -12.476562 L 32.21875 -16.488281 Z M 44.367188 0 "/></g></g></g><g clip-path="url(#1c6f0c5411)"><path fill="#ffffff" d="M 212.515625 106.375 C 212.539062 107.082031 212.917969 107.816406 213.546875 107.847656 C 216.523438 107.839844 219.308594 107.867188 222.160156 107.855469 L 222.1875 109.039062 C 221.457031 109.210938 220.804688 109.539062 220.285156 109.863281 C 219.53125 110.335938 219.246094 110.917969 219.246094 111.644531 C 219.246094 112.367188 219.570312 113.023438 220.324219 113.496094 C 221.078125 113.972656 222.121094 114.445312 223.269531 114.445312 C 224.421875 114.445312 225.464844 113.972656 226.21875 113.496094 C 226.972656 113.023438 227.296875 112.367188 227.296875 111.644531 C 227.296875 110.917969 226.9375 110.335938 226.183594 109.863281 C 225.683594 109.546875 225.054688 109.234375 224.355469 109.058594 L 224.382812 107.835938 C 224.546875 107.835938 224.710938 107.835938 224.875 107.832031 C 228.695312 107.90625 230.707031 108.046875 233.597656 108.28125 L 233.625 109.6875 C 232.894531 109.859375 232.242188 110.1875 231.726562 110.511719 C 230.972656 110.984375 230.6875 111.570312 230.6875 112.292969 C 230.6875 113.015625 231.007812 113.671875 231.761719 114.144531 C 232.515625 114.621094 233.558594 115.09375 234.710938 115.09375 C 235.859375 115.09375 236.902344 114.621094 237.65625 114.144531 C 238.410156 113.671875 238.734375 113.015625 238.734375 112.292969 C 238.734375 111.570312 238.375 110.984375 237.621094 110.511719 C 237.121094 110.199219 236.496094 109.882812 235.796875 109.707031 L 235.820312 108.460938 C 235.984375 108.472656 236.101562 108.484375 236.273438 108.496094 C 239.394531 108.824219 242.148438 109.503906 244.917969 110.457031 C 244.972656 110.472656 245.027344 110.492188 245.082031 110.511719 L 245.117188 112.128906 C 244.386719 112.300781 243.734375 112.628906 243.21875 112.953125 C 242.464844 113.425781 242.175781 114.007812 242.175781 114.734375 C 242.175781 115.457031 242.5 116.113281 243.253906 116.585938 C 244.007812 117.0625 245.050781 117.535156 246.203125 117.535156 C 247.351562 117.535156 248.394531 117.0625 249.148438 116.585938 C 249.902344 116.113281 250.226562 115.457031 250.226562 114.734375 C 250.226562 114.007812 249.867188 113.425781 249.113281 112.953125 C 248.613281 112.636719 247.988281 112.324219 247.285156 112.148438 L 247.304688 111.335938 C 248.8125 111.960938 250.277344 112.691406 251.519531 113.351562 C 252.890625 114.375 253.671875 113.542969 254.378906 112.460938 C 256.574219 108.957031 259.699219 106.390625 264.917969 105.910156 L 412.550781 108.699219 C 408.25 123.875 403.460938 126.011719 388.550781 128.90625 C 384.445312 129.703125 385.328125 136.066406 388.691406 138.253906 C 403.414062 147.8125 419.390625 136.054688 430.734375 132.78125 C 442.625 129.351562 456.109375 140.621094 463.40625 145.410156 C 467.976562 148.410156 472.371094 151.972656 481.339844 152.902344 C 503.796875 155.230469 517.53125 144.292969 524.957031 124.445312 C 527.554688 114.472656 530.535156 98.300781 525.628906 77.460938 C 522.003906 62.054688 513.90625 53.8125 503.738281 47.988281 C 495.292969 43.152344 484.46875 44.035156 474.773438 47.652344 C 461.679688 52.539062 451.109375 67.398438 434.988281 64.492188 C 428.296875 63.285156 422.9375 57.832031 416.324219 56.253906 C 408.511719 54.390625 399.878906 64.035156 405.195312 67.199219 C 416.410156 72.605469 416.582031 87.03125 415.59375 88.824219 L 267.058594 91.203125 L 264.675781 91.203125 C 260.957031 90.355469 257.199219 89.710938 254.316406 84.117188 C 252.136719 81.566406 250.667969 84.558594 247.992188 85.460938 C 247.765625 85.535156 247.53125 85.605469 247.296875 85.679688 L 247.285156 84.964844 C 247.984375 84.789062 248.609375 84.476562 249.109375 84.160156 C 249.863281 83.6875 250.222656 83.105469 250.222656 82.378906 C 250.222656 81.65625 249.902344 81 249.148438 80.527344 C 248.390625 80.050781 247.351562 79.578125 246.199219 79.578125 C 245.046875 79.578125 244.003906 80.050781 243.25 80.527344 C 242.496094 81 242.175781 81.65625 242.175781 82.378906 C 242.175781 83.105469 242.460938 83.6875 243.214844 84.160156 C 243.730469 84.484375 244.382812 84.8125 245.113281 84.984375 L 245.085938 86.34375 C 242.042969 87.210938 238.929688 87.933594 236.273438 88.300781 C 236.121094 88.332031 235.964844 88.355469 235.8125 88.382812 L 235.792969 87.40625 C 236.492188 87.230469 237.121094 86.914062 237.617188 86.601562 C 238.375 86.128906 238.730469 85.542969 238.730469 84.820312 C 238.730469 84.097656 238.410156 83.441406 237.65625 82.96875 C 236.902344 82.492188 235.859375 82.019531 234.707031 82.019531 C 233.558594 82.019531 232.515625 82.492188 231.761719 82.96875 C 231.007812 83.441406 230.683594 84.097656 230.683594 84.820312 C 230.683594 85.542969 230.96875 86.128906 231.722656 86.601562 C 232.242188 86.925781 232.894531 87.253906 233.621094 87.425781 L 233.597656 88.703125 C 230.5625 89.054688 227.46875 89.09375 224.875 89.042969 C 224.707031 89.035156 224.539062 89.027344 224.375 89.023438 L 224.355469 87.726562 C 225.054688 87.550781 225.679688 87.234375 226.179688 86.921875 C 226.933594 86.445312 227.292969 85.863281 227.292969 85.140625 C 227.292969 84.417969 226.972656 83.761719 226.214844 83.289062 C 225.460938 82.8125 224.417969 82.335938 223.269531 82.335938 C 222.117188 82.335938 221.074219 82.8125 220.320312 83.289062 C 219.566406 83.761719 219.246094 84.417969 219.246094 85.140625 C 219.246094 85.863281 219.53125 86.445312 220.285156 86.921875 C 220.800781 87.246094 221.453125 87.570312 222.183594 87.746094 L 222.164062 88.988281 C 220.632812 89 219.109375 89.066406 217.757812 89.140625 C 216.726562 89.140625 215.882812 89.820312 216.390625 91.082031 C 218.46875 96.300781 215.671875 100.101562 212.710938 105.492188 C 212.566406 105.734375 212.503906 106.050781 212.511719 106.371094 Z M 212.515625 106.375 " fill-opacity="1" fill-rule="evenodd"/></g><g fill="#1f2937" fill-opacity="1"><g transform="translate(31.454529, 125.049159)"><g><path d="M -15.367188 -10.113281 L -15.367188 -1.261719 L 0 -1.261719 L 0 -10.113281 C 0 -16.105469 -2.765625 -19.488281 -7.683594 -19.488281 C -12.601562 -19.488281 -15.367188 -16.105469 -15.367188 -10.113281 Z M -4.765625 -10.296875 L -4.765625 -8.085938 L -10.605469 -8.085938 L -10.605469 -10.296875 C -10.605469 -11.835938 -9.558594 -12.726562 -7.683594 -12.726562 C -5.808594 -12.726562 -4.765625 -11.835938 -4.765625 -10.296875 Z M -4.765625 -10.296875 "/></g></g></g><g fill="#1f2937" fill-opacity="1"><g transform="translate(31.454529, 104.608279)"><g><path d="M -11.3125 -8.085938 L -11.3125 -17.550781 L -15.367188 -17.550781 L -15.367188 -1.261719 L 0 -1.261719 L 0 -17.550781 L -4.089844 -17.550781 L -4.089844 -8.085938 L -5.777344 -8.085938 L -5.777344 -17.550781 L -9.621094 -17.550781 L -9.621094 -8.085938 Z M -11.3125 -8.085938 "/></g></g></g><g fill="#1f2937" fill-opacity="1"><g transform="translate(31.454529, 85.79653)"><g><path d="M -4.765625 -17.550781 L -4.765625 -8.085938 L -15.367188 -8.085938 L -15.367188 -1.261719 L 0 -1.261719 L 0 -17.550781 Z M -4.765625 -17.550781 "/></g></g></g></svg>